<?xml version="1.0" encoding="UTF-8" standalone="no"?>
<!DOCTYPE svg PUBLIC "-//W3C//DTD SVG 1.1//EN" "http://www.w3.org/Graphics/SVG/1.1/DTD/svg11.dtd">
<svg width="100%" height="100%" viewBox="0 0 826 680" version="1.1" xmlns="http://www.w3.org/2000/svg" xmlns:xlink="http://www.w3.org/1999/xlink" xml:space="preserve" xmlns:serif="http://www.serif.com/" style="fill-rule:evenodd;clip-rule:evenodd;stroke-linejoin:round;stroke-miterlimit:2;">
    <g transform="matrix(1,0,0,1,-3256.189008,-534.132273)">
        <path d="M3314.722,748.865C3314.907,747.477 3315.104,746.089 3315.313,744.702C3321.715,702.204 3339.393,660.977 3370.634,634.442C3478.72,542.64 3638.399,536.081 3748.847,563.714C3853.138,589.806 3983.7,651.269 4044.101,702.913C4075.02,729.349 4087.164,771.959 4080.34,796.6C4073.59,820.974 4059.992,844.877 4046.065,856.665C4025.557,874.025 3988.127,880.947 3955.472,882.354C3953.277,882.448 3951.057,882.52 3948.813,882.573C3937.247,910.331 3908.124,944.099 3848.087,983.088C3752.686,1045.044 3674.097,1021.613 3645.578,984.695C3634.863,970.824 3630.693,954.899 3633.897,939.876C3637.043,925.13 3647.344,910.895 3666.874,900.53C3762.915,849.554 3860.616,864.278 3935.571,864.395C3936.601,859.625 3936.955,855.101 3936.73,850.813C3935.814,833.368 3925.323,820.353 3914.557,811.44C3889.064,790.336 3873.223,788.53 3846.993,793.888C3827.496,797.87 3802.859,805.368 3766.472,812.337C3717.463,821.724 3672.699,819.751 3638.025,811.129C3613.203,825.953 3588.229,841.068 3566.246,856.153C3539.093,874.786 3516.563,893.184 3505.581,911.102C3501.044,918.505 3493.355,930.505 3496.358,940.092C3497.87,944.92 3496.45,954.196 3512.747,968.383C3516.563,971.704 3503.634,969.981 3499.815,966.663C3488.146,956.524 3482.49,945.782 3481.201,934.897C3479.92,924.082 3482.994,912.873 3489.95,901.522C3501.953,881.937 3526.193,861.403 3555.873,841.037C3574.04,828.57 3589.373,818.549 3609.868,806.245C3598,801.59 3582.949,794.509 3575.194,788.373C3562.878,778.628 3551.34,773.559 3549.898,761.901C3548.418,749.931 3567.042,729.992 3579.052,717.772C3612.069,684.176 3668.838,656.628 3711.968,652.928C3744.796,650.112 3774.437,661.7 3780.844,689.251C3782.422,696.037 3776.896,702.508 3773.315,709.975C3769.022,718.928 3760.649,728.589 3749.079,738.567C3727.966,756.776 3695.676,776.672 3661.118,797.349C3690.245,801.851 3725.289,801.558 3763.024,794.331C3799.311,787.381 3823.88,779.897 3843.324,775.925C3875.503,769.352 3894.973,771.427 3926.248,797.318C3940.521,809.134 3953.824,826.724 3955.038,849.852C3955.273,854.334 3955.037,859.071 3954.223,864.057C3954.376,864.05 3954.53,864.044 3954.683,864.037C3982.763,862.828 4006.672,858.244 4024.307,843.317C4035.808,833.581 4056.693,802.09 4054.037,781.372C4049.133,743.111 4034.749,724.138 4002.335,704.303C3936.544,664.044 3845.619,606.823 3744.398,581.499C3638.754,555.069 3485.886,560.607 3382.503,648.415C3358.98,668.395 3344.289,697.726 3336.816,729.199C3353.306,715.871 3370.988,704.373 3388.311,696.017C3408.368,686.344 3432.94,678.159 3449.871,678.465C3468.736,678.805 3483.964,683.795 3494.421,699.452C3502.227,711.139 3500.74,731.67 3499.322,749.279C3497.382,773.365 3487.419,801.459 3473.159,827.162C3458.941,852.79 3440.48,876.012 3421.882,890.65C3408.208,901.412 3394.269,907.563 3381.676,907.793C3358.214,908.221 3338.466,890.101 3326.348,860.687C3317.009,838.018 3312.002,808.621 3312.547,777.898C3310.582,780.171 3308.675,782.46 3306.831,784.761C3291.747,803.585 3280.837,823.118 3277.828,840.763C3272.447,872.312 3273.415,895.159 3281.609,913.308C3294.056,940.877 3322.638,957.094 3366.737,977.168C3400.483,992.53 3438.139,992.279 3473.545,987.137C3510.449,981.778 3545.026,971.05 3570.911,965.68C3585.778,962.596 3598.096,961.351 3606.856,963.041C3615.181,964.646 3621.018,968.649 3624.452,974.992C3628.429,982.34 3627.6,989.45 3622.183,996.643C3617.26,1003.18 3607.013,1010.186 3593.686,1018.029C3549.27,1044.166 3477.336,1079.874 3472.546,1173.58C3472.288,1178.632 3470.317,1213.133 3465.307,1213.836C3460.297,1214.538 3463.014,1192.127 3462.312,1187.117C3446.772,1076.317 3523.614,1042.192 3572.479,1013.437C3581.668,1008.029 3593.472,998.101 3598.085,993.53C3599.011,992.613 3603.122,985.643 3598.576,982.525C3592.968,978.678 3584.812,981.52 3574.635,983.631C3548.464,989.061 3513.493,999.862 3476.179,1005.28C3437.367,1010.917 3396.134,1010.694 3359.141,993.854C3309.742,971.367 3278.843,951.734 3264.9,920.852C3255.5,900.033 3253.583,873.871 3259.755,837.681C3263.203,817.468 3275.246,794.86 3292.525,773.297C3299.222,764.94 3306.699,756.729 3314.722,748.865ZM3332.021,757.649C3329.505,781.948 3330.847,806.246 3335.346,827.414C3339.308,846.052 3345.72,862.269 3354.384,873.716C3361.775,883.48 3370.726,889.656 3381.342,889.462C3390.577,889.294 3400.515,884.136 3410.543,876.244C3427.492,862.903 3444.17,841.623 3457.127,818.268C3470.042,794.989 3479.291,769.621 3481.048,747.807C3482.095,734.815 3480.556,723.183 3474.797,714.56C3467.843,704.148 3457.159,699.758 3444.615,699.531C3430.137,699.27 3413.426,704.258 3396.276,712.53C3374.253,723.153 3351.623,739.232 3332.021,757.649ZM3635.137,791.64C3674.813,768.042 3713.204,745.297 3737.106,724.684C3744.96,717.91 3751.165,711.455 3755.016,705.25C3757.786,700.786 3759.366,696.663 3758.442,692.689C3754.105,674.034 3735.763,669.288 3713.535,671.195C3674.114,674.576 3622.306,699.916 3592.128,730.622C3584.925,737.951 3581.633,745.255 3582.521,752.434C3583.447,759.924 3588.609,766.815 3596.522,773.076C3605.995,780.571 3619.147,786.946 3635.137,791.64ZM3928.787,882.595C3857.016,881.385 3765.438,868.971 3675.469,916.723C3661.823,923.966 3663.329,936.134 3661.131,946.437C3658.993,956.463 3662.239,966.966 3669.39,976.224C3694.472,1008.693 3754.199,1022.202 3838.102,967.713C3877.714,941.987 3903.133,919.117 3918.37,898.887C3922.644,893.212 3926.087,887.784 3928.787,882.595Z" style="fill:rgb(110,120,176);"/>
        <g transform="matrix(1,0,0,1,-10.326252,12.07772)">
            <circle cx="3477.921" cy="802.727" r="11.982" style="fill:white;"/>
            <path d="M3477.921,775.864C3492.747,775.864 3504.784,787.901 3504.784,802.727C3504.784,817.553 3492.747,829.59 3477.921,829.59C3463.095,829.59 3451.058,817.553 3451.058,802.727C3451.058,787.901 3463.095,775.864 3477.921,775.864ZM3477.921,790.745C3471.308,790.745 3465.938,796.114 3465.938,802.727C3465.938,809.34 3471.308,814.709 3477.921,814.709C3484.534,814.709 3489.903,809.34 3489.903,802.727C3489.903,796.114 3484.534,790.745 3477.921,790.745Z" style="fill:rgb(110,120,176);"/>
        </g>
        <g transform="matrix(1,0,0,1,266.122161,-137.131654)">
            <circle cx="3477.921" cy="802.727" r="11.982" style="fill:white;"/>
            <path d="M3477.921,775.864C3492.747,775.864 3504.784,787.901 3504.784,802.727C3504.784,817.553 3492.747,829.59 3477.921,829.59C3463.095,829.59 3451.058,817.553 3451.058,802.727C3451.058,787.901 3463.095,775.864 3477.921,775.864ZM3477.921,790.745C3471.308,790.745 3465.938,796.114 3465.938,802.727C3465.938,809.34 3471.308,814.709 3477.921,814.709C3484.534,814.709 3489.903,809.34 3489.903,802.727C3489.903,796.114 3484.534,790.745 3477.921,790.745Z" style="fill:rgb(110,120,176);"/>
        </g>
        <g transform="matrix(1,0,0,1,65.463564,181.157705)">
            <circle cx="3477.921" cy="802.727" r="11.982" style="fill:white;"/>
            <path d="M3477.921,775.864C3492.747,775.864 3504.784,787.901 3504.784,802.727C3504.784,817.553 3492.747,829.59 3477.921,829.59C3463.095,829.59 3451.058,817.553 3451.058,802.727C3451.058,787.901 3463.095,775.864 3477.921,775.864ZM3477.921,790.745C3471.308,790.745 3465.938,796.114 3465.938,802.727C3465.938,809.34 3471.308,814.709 3477.921,814.709C3484.534,814.709 3489.903,809.34 3489.903,802.727C3489.903,796.114 3484.534,790.745 3477.921,790.745Z" style="fill:rgb(110,120,176);"/>
        </g>
        <g transform="matrix(1,0,0,1,18.106669,282.575843)">
            <circle cx="3477.921" cy="802.727" r="11.982" style="fill:white;"/>
            <path d="M3477.921,775.864C3492.747,775.864 3504.784,787.901 3504.784,802.727C3504.784,817.553 3492.747,829.59 3477.921,829.59C3463.095,829.59 3451.058,817.553 3451.058,802.727C3451.058,787.901 3463.095,775.864 3477.921,775.864ZM3477.921,790.745C3471.308,790.745 3465.938,796.114 3465.938,802.727C3465.938,809.34 3471.308,814.709 3477.921,814.709C3484.534,814.709 3489.903,809.34 3489.903,802.727C3489.903,796.114 3484.534,790.745 3477.921,790.745Z" style="fill:rgb(110,120,176);"/>
        </g>
        <g transform="matrix(1,0,0,1,322.941957,70.78098)">
            <circle cx="3477.921" cy="802.727" r="11.982" style="fill:white;"/>
            <path d="M3477.921,784.594C3487.929,784.594 3496.054,792.719 3496.054,802.727C3496.054,812.735 3487.929,820.86 3477.921,820.86C3467.913,820.86 3459.788,812.735 3459.788,802.727C3459.788,792.719 3467.913,784.594 3477.921,784.594ZM3477.921,790.745C3471.308,790.745 3465.938,796.114 3465.938,802.727C3465.938,809.34 3471.308,814.709 3477.921,814.709C3484.534,814.709 3489.903,809.34 3489.903,802.727C3489.903,796.114 3484.534,790.745 3477.921,790.745Z" style="fill:rgb(110,120,176);"/>
        </g>
        <g transform="matrix(1,0,0,1,475.984237,-145.153131)">
            <circle cx="3477.921" cy="802.727" r="11.982" style="fill:white;"/>
            <path d="M3477.921,775.864C3492.747,775.864 3504.784,787.901 3504.784,802.727C3504.784,817.553 3492.747,829.59 3477.921,829.59C3463.095,829.59 3451.058,817.553 3451.058,802.727C3451.058,787.901 3463.095,775.864 3477.921,775.864ZM3477.921,790.745C3471.308,790.745 3465.938,796.114 3465.938,802.727C3465.938,809.34 3471.308,814.709 3477.921,814.709C3484.534,814.709 3489.903,809.34 3489.903,802.727C3489.903,796.114 3484.534,790.745 3477.921,790.745Z" style="fill:rgb(110,120,176);"/>
        </g>
        <g transform="matrix(1,0,0,1,108.164008,-241.731475)">
            <circle cx="3477.921" cy="802.727" r="11.982" style="fill:white;"/>
            <path d="M3477.921,775.864C3492.747,775.864 3504.784,787.901 3504.784,802.727C3504.784,817.553 3492.747,829.59 3477.921,829.59C3463.095,829.59 3451.058,817.553 3451.058,802.727C3451.058,787.901 3463.095,775.864 3477.921,775.864ZM3477.921,790.745C3471.308,790.745 3465.938,796.114 3465.938,802.727C3465.938,809.34 3471.308,814.709 3477.921,814.709C3484.534,814.709 3489.903,809.34 3489.903,802.727C3489.903,796.114 3484.534,790.745 3477.921,790.745Z" style="fill:rgb(110,120,176);"/>
        </g>
        <g transform="matrix(1,0,0,1,74.608322,55.177279)">
            <circle cx="3477.921" cy="802.727" r="11.982" style="fill:white;"/>
            <path d="M3477.921,775.864C3492.747,775.864 3504.784,787.901 3504.784,802.727C3504.784,817.553 3492.747,829.59 3477.921,829.59C3463.095,829.59 3451.058,817.553 3451.058,802.727C3451.058,787.901 3463.095,775.864 3477.921,775.864ZM3477.921,790.745C3471.308,790.745 3465.938,796.114 3465.938,802.727C3465.938,809.34 3471.308,814.709 3477.921,814.709C3484.534,814.709 3489.903,809.34 3489.903,802.727C3489.903,796.114 3484.534,790.745 3477.921,790.745Z" style="fill:rgb(110,120,176);"/>
        </g>
        <g transform="matrix(1,0,0,1,-99.309771,-165.953663)">
            <circle cx="3477.921" cy="802.727" r="11.982" style="fill:white;"/>
            <path d="M3477.921,775.864C3492.747,775.864 3504.784,787.901 3504.784,802.727C3504.784,817.553 3492.747,829.59 3477.921,829.59C3463.095,829.59 3451.058,817.553 3451.058,802.727C3451.058,787.901 3463.095,775.864 3477.921,775.864ZM3477.921,790.745C3471.308,790.745 3465.938,796.114 3465.938,802.727C3465.938,809.34 3471.308,814.709 3477.921,814.709C3484.534,814.709 3489.903,809.34 3489.903,802.727C3489.903,796.114 3484.534,790.745 3477.921,790.745Z" style="fill:rgb(110,120,176);"/>
        </g>
        <g transform="matrix(1,0,0,1,-184.360062,138.188617)">
            <circle cx="3477.921" cy="802.727" r="11.982" style="fill:white;"/>
            <path d="M3477.921,775.864C3492.747,775.864 3504.784,787.901 3504.784,802.727C3504.784,817.553 3492.747,829.59 3477.921,829.59C3463.095,829.59 3451.058,817.553 3451.058,802.727C3451.058,787.901 3463.095,775.864 3477.921,775.864ZM3477.921,790.745C3471.308,790.745 3465.938,796.114 3465.938,802.727C3465.938,809.34 3471.308,814.709 3477.921,814.709C3484.534,814.709 3489.903,809.34 3489.903,802.727C3489.903,796.114 3484.534,790.745 3477.921,790.745Z" style="fill:rgb(110,120,176);"/>
        </g>
        <g transform="matrix(1,0,0,1,563.593468,30.891664)">
            <circle cx="3477.921" cy="802.727" r="11.982" style="fill:white;"/>
            <path d="M3477.921,775.864C3492.747,775.864 3504.784,787.901 3504.784,802.727C3504.784,817.553 3492.747,829.59 3477.921,829.59C3463.095,829.59 3451.058,817.553 3451.058,802.727C3451.058,787.901 3463.095,775.864 3477.921,775.864ZM3477.921,790.745C3471.308,790.745 3465.938,796.114 3465.938,802.727C3465.938,809.34 3471.308,814.709 3477.921,814.709C3484.534,814.709 3489.903,809.34 3489.903,802.727C3489.903,796.114 3484.534,790.745 3477.921,790.745Z" style="fill:rgb(110,120,176);"/>
        </g>
        <g transform="matrix(1,0,0,1,266.970164,207.313328)">
            <circle cx="3477.921" cy="802.727" r="11.982" style="fill:white;"/>
            <path d="M3477.921,775.864C3492.747,775.864 3504.784,787.901 3504.784,802.727C3504.784,817.553 3492.747,829.59 3477.921,829.59C3463.095,829.59 3451.058,817.553 3451.058,802.727C3451.058,787.901 3463.095,775.864 3477.921,775.864ZM3477.921,790.745C3471.308,790.745 3465.938,796.114 3465.938,802.727C3465.938,809.34 3471.308,814.709 3477.921,814.709C3484.534,814.709 3489.903,809.34 3489.903,802.727C3489.903,796.114 3484.534,790.745 3477.921,790.745Z" style="fill:rgb(110,120,176);"/>
        </g>
    </g>
</svg>
